<mxfile host="app.diagrams.net" modified="2023-12-04T02:31:43.129Z" agent="Mozilla/5.0 (Macintosh; Intel Mac OS X 10_15_7) AppleWebKit/537.36 (KHTML, like Gecko) Chrome/119.0.0.0 Safari/537.36" etag="r9pSVJWT8cB9ae9hYRhw" version="22.1.5" type="github">
  <diagram name="Page-1" id="74e2e168-ea6b-b213-b513-2b3c1d86103e">
    <mxGraphModel dx="1434" dy="790" grid="0" gridSize="10" guides="1" tooltips="1" connect="1" arrows="1" fold="1" page="1" pageScale="1" pageWidth="1100" pageHeight="850" background="none" math="0" shadow="0">
      <root>
        <mxCell id="0" />
        <mxCell id="1" parent="0" />
        <mxCell id="77e6c97f196da883-1" value="Pool" style="swimlane;html=1;childLayout=stackLayout;startSize=20;rounded=0;shadow=0;labelBackgroundColor=none;strokeWidth=1;fontFamily=Verdana;fontSize=8;align=center;" parent="1" vertex="1">
          <mxGeometry x="120" y="40" width="640" height="270" as="geometry" />
        </mxCell>
        <mxCell id="77e6c97f196da883-2" value="开发" style="swimlane;html=1;startSize=20;" parent="77e6c97f196da883-1" vertex="1">
          <mxGeometry y="20" width="160" height="250" as="geometry" />
        </mxCell>
        <mxCell id="77e6c97f196da883-8" value="&lt;font style=&quot;font-size: 13px;&quot;&gt;编写SQL，并在测试环境的数据库上验证SQL&lt;br&gt;&lt;/font&gt;" style="rounded=1;whiteSpace=wrap;html=1;shadow=0;labelBackgroundColor=none;strokeWidth=1;fontFamily=Verdana;fontSize=8;align=center;" parent="77e6c97f196da883-2" vertex="1">
          <mxGeometry x="30" y="65" width="100" height="105" as="geometry" />
        </mxCell>
        <mxCell id="77e6c97f196da883-3" value="CICD" style="swimlane;html=1;startSize=20;" parent="77e6c97f196da883-1" vertex="1">
          <mxGeometry x="160" y="20" width="160" height="250" as="geometry" />
        </mxCell>
        <mxCell id="77e6c97f196da883-11" value="&lt;span style=&quot;font-size: 13px;&quot;&gt;集成应用程序？&lt;/span&gt;" style="rounded=1;whiteSpace=wrap;html=1;shadow=0;labelBackgroundColor=none;strokeWidth=1;fontFamily=Verdana;fontSize=8;align=center;" parent="77e6c97f196da883-3" vertex="1">
          <mxGeometry x="30" y="76.25" width="100" height="82.5" as="geometry" />
        </mxCell>
        <mxCell id="77e6c97f196da883-4" value="执行（验证）业务SQL" style="swimlane;html=1;startSize=20;" parent="77e6c97f196da883-1" vertex="1">
          <mxGeometry x="320" y="20" width="160" height="250" as="geometry" />
        </mxCell>
        <mxCell id="ZJsK6naz6Vec70PuY60e-13" value="&lt;font style=&quot;font-size: 13px;&quot;&gt;应用程序运行中执行业务SQL&lt;/font&gt;" style="rounded=1;whiteSpace=wrap;html=1;shadow=0;labelBackgroundColor=none;strokeWidth=1;fontFamily=Verdana;fontSize=8;align=center;" vertex="1" parent="77e6c97f196da883-4">
          <mxGeometry x="30" y="76.25" width="100" height="82.5" as="geometry" />
        </mxCell>
        <mxCell id="ZJsK6naz6Vec70PuY60e-1" value="事后审核业务SQL" style="swimlane;html=1;startSize=20;" vertex="1" parent="77e6c97f196da883-1">
          <mxGeometry x="480" y="20" width="160" height="250" as="geometry" />
        </mxCell>
        <mxCell id="ZJsK6naz6Vec70PuY60e-10" value="&lt;span style=&quot;font-size: 13px;&quot;&gt;通过慢日志平台拉取业务SQL进行人工审核&lt;/span&gt;" style="rounded=1;whiteSpace=wrap;html=1;shadow=0;labelBackgroundColor=none;strokeWidth=1;fontFamily=Verdana;fontSize=8;align=center;" vertex="1" parent="ZJsK6naz6Vec70PuY60e-1">
          <mxGeometry x="30" y="76.25" width="100" height="82.5" as="geometry" />
        </mxCell>
        <mxCell id="ZJsK6naz6Vec70PuY60e-8" value="" style="edgeStyle=orthogonalEdgeStyle;rounded=0;orthogonalLoop=1;jettySize=auto;html=1;" edge="1" parent="77e6c97f196da883-1" source="77e6c97f196da883-8" target="77e6c97f196da883-11">
          <mxGeometry relative="1" as="geometry" />
        </mxCell>
        <mxCell id="ZJsK6naz6Vec70PuY60e-14" value="" style="edgeStyle=orthogonalEdgeStyle;rounded=0;orthogonalLoop=1;jettySize=auto;html=1;" edge="1" parent="77e6c97f196da883-1" source="77e6c97f196da883-11" target="ZJsK6naz6Vec70PuY60e-13">
          <mxGeometry relative="1" as="geometry" />
        </mxCell>
        <mxCell id="ZJsK6naz6Vec70PuY60e-15" value="" style="edgeStyle=orthogonalEdgeStyle;rounded=0;orthogonalLoop=1;jettySize=auto;html=1;" edge="1" parent="77e6c97f196da883-1" source="ZJsK6naz6Vec70PuY60e-13" target="ZJsK6naz6Vec70PuY60e-10">
          <mxGeometry relative="1" as="geometry" />
        </mxCell>
        <mxCell id="ZJsK6naz6Vec70PuY60e-28" style="edgeStyle=orthogonalEdgeStyle;rounded=0;orthogonalLoop=1;jettySize=auto;html=1;entryX=0.5;entryY=1;entryDx=0;entryDy=0;" edge="1" parent="77e6c97f196da883-1" source="ZJsK6naz6Vec70PuY60e-10" target="77e6c97f196da883-8">
          <mxGeometry relative="1" as="geometry">
            <Array as="points">
              <mxPoint x="560" y="230" />
              <mxPoint x="80" y="230" />
            </Array>
          </mxGeometry>
        </mxCell>
        <mxCell id="ZJsK6naz6Vec70PuY60e-29" value="生成审核报告，提供优化建议" style="edgeLabel;html=1;align=center;verticalAlign=middle;resizable=0;points=[];" vertex="1" connectable="0" parent="ZJsK6naz6Vec70PuY60e-28">
          <mxGeometry x="-0.8296" y="1" relative="1" as="geometry">
            <mxPoint x="-1" y="-18" as="offset" />
          </mxGeometry>
        </mxCell>
        <mxCell id="ZJsK6naz6Vec70PuY60e-16" value="Pool" style="swimlane;html=1;childLayout=stackLayout;startSize=20;rounded=0;shadow=0;labelBackgroundColor=none;strokeWidth=1;fontFamily=Verdana;fontSize=8;align=center;" vertex="1" parent="1">
          <mxGeometry x="120" y="380" width="760" height="300" as="geometry" />
        </mxCell>
        <mxCell id="ZJsK6naz6Vec70PuY60e-17" value="开发" style="swimlane;html=1;startSize=20;" vertex="1" parent="ZJsK6naz6Vec70PuY60e-16">
          <mxGeometry y="20" width="190" height="280" as="geometry" />
        </mxCell>
        <mxCell id="ZJsK6naz6Vec70PuY60e-18" value="&lt;font style=&quot;font-size: 13px;&quot;&gt;借助&lt;font color=&quot;#ff0000&quot;&gt;SQLE&lt;/font&gt;提供的SQL工作台、IDE插件、页面SQL审核功能帮助研发优化SQL&lt;br&gt;&lt;/font&gt;" style="rounded=1;whiteSpace=wrap;html=1;shadow=0;labelBackgroundColor=none;strokeWidth=1;fontFamily=Verdana;fontSize=8;align=center;" vertex="1" parent="ZJsK6naz6Vec70PuY60e-17">
          <mxGeometry x="30" y="65" width="100" height="105" as="geometry" />
        </mxCell>
        <mxCell id="ZJsK6naz6Vec70PuY60e-30" style="edgeStyle=orthogonalEdgeStyle;rounded=0;orthogonalLoop=1;jettySize=auto;html=1;entryX=0.5;entryY=1;entryDx=0;entryDy=0;exitX=1;exitY=0.5;exitDx=0;exitDy=0;" edge="1" parent="ZJsK6naz6Vec70PuY60e-17" source="ZJsK6naz6Vec70PuY60e-18" target="ZJsK6naz6Vec70PuY60e-18">
          <mxGeometry relative="1" as="geometry">
            <Array as="points">
              <mxPoint x="150" y="118" />
              <mxPoint x="150" y="210" />
              <mxPoint x="80" y="210" />
            </Array>
          </mxGeometry>
        </mxCell>
        <mxCell id="ZJsK6naz6Vec70PuY60e-41" value="SQL优化建议" style="edgeLabel;html=1;align=center;verticalAlign=middle;resizable=0;points=[];" vertex="1" connectable="0" parent="ZJsK6naz6Vec70PuY60e-30">
          <mxGeometry x="-0.2784" y="1" relative="1" as="geometry">
            <mxPoint y="1" as="offset" />
          </mxGeometry>
        </mxCell>
        <mxCell id="ZJsK6naz6Vec70PuY60e-19" value="CICD" style="swimlane;html=1;startSize=20;" vertex="1" parent="ZJsK6naz6Vec70PuY60e-16">
          <mxGeometry x="190" y="20" width="190" height="280" as="geometry" />
        </mxCell>
        <mxCell id="ZJsK6naz6Vec70PuY60e-20" value="&lt;font style=&quot;font-size: 13px;&quot;&gt;通过调用&lt;font color=&quot;#ff0000&quot;&gt;SQLE&lt;/font&gt;工单审核接口的方式审核研发提交的SQL&lt;/font&gt;" style="rounded=1;whiteSpace=wrap;html=1;shadow=0;labelBackgroundColor=none;strokeWidth=1;fontFamily=Verdana;fontSize=8;align=center;" vertex="1" parent="ZJsK6naz6Vec70PuY60e-19">
          <mxGeometry x="30" y="76.25" width="100" height="82.5" as="geometry" />
        </mxCell>
        <mxCell id="ZJsK6naz6Vec70PuY60e-21" value="执行（验证）业务SQL" style="swimlane;html=1;startSize=20;" vertex="1" parent="ZJsK6naz6Vec70PuY60e-16">
          <mxGeometry x="380" y="20" width="190" height="280" as="geometry" />
        </mxCell>
        <mxCell id="ZJsK6naz6Vec70PuY60e-22" value="&lt;font style=&quot;font-size: 13px;&quot;&gt;应用程序运行中执行业务SQL&lt;/font&gt;" style="rounded=1;whiteSpace=wrap;html=1;shadow=0;labelBackgroundColor=none;strokeWidth=1;fontFamily=Verdana;fontSize=8;align=center;" vertex="1" parent="ZJsK6naz6Vec70PuY60e-21">
          <mxGeometry x="30" y="76.25" width="100" height="82.5" as="geometry" />
        </mxCell>
        <mxCell id="ZJsK6naz6Vec70PuY60e-23" value="事后审核业务SQL" style="swimlane;html=1;startSize=20;" vertex="1" parent="ZJsK6naz6Vec70PuY60e-16">
          <mxGeometry x="570" y="20" width="190" height="280" as="geometry" />
        </mxCell>
        <mxCell id="ZJsK6naz6Vec70PuY60e-24" value="&lt;font style=&quot;font-size: 13px;&quot;&gt;通过&lt;font color=&quot;#ff0000&quot;&gt;SQLE&lt;/font&gt;提供的慢日志扫描任务抓取并审核业务SQL&lt;/font&gt;" style="rounded=1;whiteSpace=wrap;html=1;shadow=0;labelBackgroundColor=none;strokeWidth=1;fontFamily=Verdana;fontSize=8;align=center;" vertex="1" parent="ZJsK6naz6Vec70PuY60e-23">
          <mxGeometry x="30" y="76.25" width="100" height="82.5" as="geometry" />
        </mxCell>
        <mxCell id="ZJsK6naz6Vec70PuY60e-25" value="" style="edgeStyle=orthogonalEdgeStyle;rounded=0;orthogonalLoop=1;jettySize=auto;html=1;" edge="1" parent="ZJsK6naz6Vec70PuY60e-16" source="ZJsK6naz6Vec70PuY60e-18" target="ZJsK6naz6Vec70PuY60e-20">
          <mxGeometry relative="1" as="geometry" />
        </mxCell>
        <mxCell id="ZJsK6naz6Vec70PuY60e-27" value="" style="edgeStyle=orthogonalEdgeStyle;rounded=0;orthogonalLoop=1;jettySize=auto;html=1;" edge="1" parent="ZJsK6naz6Vec70PuY60e-16" source="ZJsK6naz6Vec70PuY60e-22" target="ZJsK6naz6Vec70PuY60e-24">
          <mxGeometry relative="1" as="geometry" />
        </mxCell>
        <mxCell id="ZJsK6naz6Vec70PuY60e-37" value="" style="edgeStyle=orthogonalEdgeStyle;rounded=0;orthogonalLoop=1;jettySize=auto;html=1;" edge="1" parent="ZJsK6naz6Vec70PuY60e-16" source="ZJsK6naz6Vec70PuY60e-20" target="ZJsK6naz6Vec70PuY60e-22">
          <mxGeometry relative="1" as="geometry" />
        </mxCell>
        <mxCell id="ZJsK6naz6Vec70PuY60e-38" style="edgeStyle=orthogonalEdgeStyle;rounded=0;orthogonalLoop=1;jettySize=auto;html=1;exitX=1;exitY=0.5;exitDx=0;exitDy=0;entryX=0.5;entryY=1;entryDx=0;entryDy=0;" edge="1" parent="ZJsK6naz6Vec70PuY60e-16" source="ZJsK6naz6Vec70PuY60e-20" target="ZJsK6naz6Vec70PuY60e-18">
          <mxGeometry relative="1" as="geometry">
            <Array as="points">
              <mxPoint x="340" y="138" />
              <mxPoint x="340" y="250" />
              <mxPoint x="80" y="250" />
            </Array>
          </mxGeometry>
        </mxCell>
        <mxCell id="ZJsK6naz6Vec70PuY60e-42" value="SQL优化建议" style="edgeLabel;html=1;align=center;verticalAlign=middle;resizable=0;points=[];" vertex="1" connectable="0" parent="ZJsK6naz6Vec70PuY60e-38">
          <mxGeometry x="-0.6092" y="-3" relative="1" as="geometry">
            <mxPoint as="offset" />
          </mxGeometry>
        </mxCell>
        <mxCell id="ZJsK6naz6Vec70PuY60e-45" style="edgeStyle=orthogonalEdgeStyle;rounded=0;orthogonalLoop=1;jettySize=auto;html=1;exitX=1;exitY=0.5;exitDx=0;exitDy=0;entryX=0.5;entryY=1;entryDx=0;entryDy=0;" edge="1" parent="ZJsK6naz6Vec70PuY60e-16" source="ZJsK6naz6Vec70PuY60e-24" target="ZJsK6naz6Vec70PuY60e-18">
          <mxGeometry relative="1" as="geometry">
            <Array as="points">
              <mxPoint x="720" y="138" />
              <mxPoint x="720" y="270" />
              <mxPoint x="80" y="270" />
            </Array>
          </mxGeometry>
        </mxCell>
        <mxCell id="ZJsK6naz6Vec70PuY60e-46" value="SQL优化建议" style="edgeLabel;html=1;align=center;verticalAlign=middle;resizable=0;points=[];" vertex="1" connectable="0" parent="ZJsK6naz6Vec70PuY60e-45">
          <mxGeometry x="-0.7822" y="1" relative="1" as="geometry">
            <mxPoint y="1" as="offset" />
          </mxGeometry>
        </mxCell>
      </root>
    </mxGraphModel>
  </diagram>
</mxfile>
